<svg xmlns="http://www.w3.org/2000/svg" viewBox="0 0 100 100"><path fill="none" stroke="#000" d="M13 9c2.38-5.73 6.02-1.14 14-1.07h14c6.47-.78 5.94-3.11 14-.93 2.49.67 6.51 1.11 7.98 3.31C64.34 12.36 64 17.48 64 20l-9 1h9v22l-9 1h9c-.01 12.03-.62 10.5-9 13 2.37 0 5.8-.15 8 .56C69.02 59.5 83.93 74.94 89 80c2.09 2.09 10.56 9.24 8.83 12.4-1.07 1.96-5.9 1.6-7.83 1.6H33c-2.54-.01-5.66.19-7.95-1.02C21.07 90.86 11.49 75.43 9.09 71 7.61 68.26 4 63.17 4.99 60.13 6.26 56.21 9.64 58.22 14 55-.56 58.76 3 39.72 3 31l9-1H3l-2-9h2C.55 15.2 1 14.11 1 8l12 1Zm0 10-7 2c3.19-.04 4.78.47 7-2Zm14 1-5 1 5-1Zm20 0-5 1 5-1Zm0 10H29c-3.18.02-4.8-.46-7 2l25-2Zm13 0-5 1 5-1ZM14 43l-7 1 7-1Zm33 0-23 1 23-1ZM24 55h-1l1 1v-1Zm23 1-23 1 23-1Zm41 32c-2.94-4.63-7.14-8.14-11-12-7.73-7.72-9.77-12.98-21-13H11l16 25h61ZM52 68.8c2.9-.62 6.04-1.29 9 0 4.81 1.56 14.79 12.52 17 17.2-15.55 4.42-14.6-6.81-26-15v-2.2ZM41 78c8 0 12.87-.73 14 9-7.87-.01-12.09-.04-14-9Z"/></svg>