<svg xmlns="http://www.w3.org/2000/svg" viewBox="0 0 100 100"><path fill="none" stroke="#000" d="M22 0h3c0 3.87 1.09 9.23-2 12l4.79 10v20l4.59-13 4.99-13L38 9l-2-3c10.65 7.65 1.91 19.25 1 29 3.12-3.53 7.8-12.38 8.86-17v-7c5.79 2.01 2.15 3.06 2.14 15h4l-1-15h4c0 7.8 1.42 18.88 9 23-3.57-8.15-8.66-22.29 1-28l-2.01 9 4.19 11L71 42h2l1-1c-2-4.75-3.1-14.74-1.52-19.72.81-2.56 2.66-3.94 3.45-7.28V0H78c.29 9.21 4.01 10.37 3.58 15-.22 2.31-2.63 6.17-3.52 9-1.06 3.36-.71 17.74.53 20.89.69 1.73 1.23 1.92 2.41 3.11l1.93-11 4.67-8.17L86 18c3.31 2.07 3.3 4.32 4 8 7.62-4.15 6-12.54 6-20h2l-.6 20-6.43 9L85 52l10-6c-.6 5.23-1.48 6.36-6 9l1 4c-5.48-.44-5.98-1.31-10-5v24c-.03 4.67.36 6.54-4 9V59c-.04-1.94 0-3.88-.85-5.68C72.57 47.84 55.22 35.86 50 31L26.02 53 25 60l-1 26h-2l-1-1V55c-4.38 2.78-4.73 3.58-10 4l1-4c-4.4-2.19-6.18-3.93-6-9l9 7c-.3-4.12-3.45-14.6-5.43-18.2l-6.75-8.31C.59 22 .9 10.19 4 6l4 20h2c1.26-3.53 1.39-4.63 5-6-.59 2.52-2.25 6.67-1.62 9 .69 2.54 3.2 4.36 4.19 8 1.55 5.68-1.22 6.18 4.32 11V36l1.27-6-3.94-15.91L22 0Zm18 65c-1.54-.43-4.45-1.08-5.69-1.98-4.17-3.05-1.78-10.43 1.12-13.55 3.54-3.8 12.44-6.95 17.57-6.23 2.48.34 4.83 1.56 7 2.78 2.32 1.3 4.64 2.68 5.98 5.07C67.43 53.69 67.93 60.9 68 64l-7 2h9v16H60c3.25 5.67 4.46 15.17-3 18v-5l-14-1v6c-5.62-3.49-4.6-12.38-3-18l-1-1c-10.1 2.06-8.65-10.17-6.98-12.69 1.49-2.23 5.45-2.56 7.98-3.31Zm8-1c1.33 4.4 4.05 3.32 6 0h-6Zm-1 8-14-3 1 6c4.63 1.15 11.13 2.33 13-3Zm20-3-12 3c.38.66.38 1.36 1.54 2.38 1.83 1.5 7.63 2.07 9.29 0C66.97 73 66.9 70.71 67 69Zm-16 7c-3.59 3.27-3.72 4.25-4 9l7 1-3-10Z"/></svg>